<?xml version="1.0" encoding="UTF-8" standalone="no"?>
<!DOCTYPE svg PUBLIC "-//W3C//DTD SVG 1.1//EN"
 "http://www.w3.org/Graphics/SVG/1.1/DTD/svg11.dtd">
<!-- Generated by graphviz version 2.43.0 (0)
 -->
<!-- Title: G Pages: 1 -->
<svg width="1388pt" height="418pt"
 viewBox="0.00 0.00 1388.00 418.00" xmlns="http://www.w3.org/2000/svg" xmlns:xlink="http://www.w3.org/1999/xlink">
<g id="graph0" class="graph" transform="scale(1 1) rotate(0) translate(4 414)">
<title>G</title>
<polygon fill="white" stroke="transparent" points="-4,4 -4,-414 1384,-414 1384,4 -4,4"/>
<g id="clust1" class="cluster">
<title>cluster_py</title>
<path fill="white" stroke="#000000" stroke-dasharray="5,2" d="M25.5,-102C25.5,-102 1360,-102 1360,-102 1366,-102 1372,-108 1372,-114 1372,-114 1372,-390 1372,-390 1372,-396 1366,-402 1360,-402 1360,-402 25.5,-402 25.5,-402 19.5,-402 13.5,-396 13.5,-390 13.5,-390 13.5,-114 13.5,-114 13.5,-108 19.5,-102 25.5,-102"/>
<text text-anchor="middle" x="692.75" y="-389.2" font-family="Helvetica,sans-Serif" font-size="11.00">forensic&#45;framework (Python 3.11)</text>
</g>
<g id="clust2" class="cluster">
<title>cluster_app</title>
<path fill="white" stroke="#000000" d="M33.5,-236C33.5,-236 1352,-236 1352,-236 1358,-236 1364,-242 1364,-248 1364,-248 1364,-362 1364,-362 1364,-368 1358,-374 1352,-374 1352,-374 33.5,-374 33.5,-374 27.5,-374 21.5,-368 21.5,-362 21.5,-362 21.5,-248 21.5,-248 21.5,-242 27.5,-236 33.5,-236"/>
<text text-anchor="middle" x="692.75" y="-361.2" font-family="Helvetica,sans-Serif" font-size="11.00">app/</text>
</g>
<g id="clust3" class="cluster">
<title>cluster_php</title>
<path fill="white" stroke="#000000" stroke-dasharray="5,2" d="M20,-8C20,-8 433,-8 433,-8 439,-8 445,-14 445,-20 445,-20 445,-82 445,-82 445,-88 439,-94 433,-94 433,-94 20,-94 20,-94 14,-94 8,-88 8,-82 8,-82 8,-20 8,-20 8,-14 14,-8 20,-8"/>
<text text-anchor="middle" x="226.5" y="-81.2" font-family="Helvetica,sans-Serif" font-size="11.00">forensic&#45;laravel (PHP)</text>
</g>
<!-- ingmod -->
<g id="node1" class="node">
<title>ingmod</title>
<path fill="#eef3fb" stroke="#3b5b92" stroke-width="1.2" d="M148.5,-283C148.5,-283 41.5,-283 41.5,-283 35.5,-283 29.5,-277 29.5,-271 29.5,-271 29.5,-259 29.5,-259 29.5,-253 35.5,-247 41.5,-247 41.5,-247 148.5,-247 148.5,-247 154.5,-247 160.5,-253 160.5,-259 160.5,-259 160.5,-271 160.5,-271 160.5,-277 154.5,-283 148.5,-283"/>
<text text-anchor="middle" x="95" y="-268" font-family="Helvetica,sans-Serif" font-size="10.00">ingestion/</text>
<text text-anchor="middle" x="95" y="-257" font-family="Helvetica,sans-Serif" font-size="10.00">log_generator, parser</text>
</g>
<!-- normmod -->
<g id="node2" class="node">
<title>normmod</title>
<path fill="#eef3fb" stroke="#3b5b92" stroke-width="1.2" d="M449,-283C449,-283 320,-283 320,-283 314,-283 308,-277 308,-271 308,-271 308,-259 308,-259 308,-253 314,-247 320,-247 320,-247 449,-247 449,-247 455,-247 461,-253 461,-259 461,-259 461,-271 461,-271 461,-277 455,-283 449,-283"/>
<text text-anchor="middle" x="384.5" y="-268" font-family="Helvetica,sans-Serif" font-size="10.00">normalizer/</text>
<text text-anchor="middle" x="384.5" y="-257" font-family="Helvetica,sans-Serif" font-size="10.00">normalizer, ocsf_mapping</text>
</g>
<!-- ingmod&#45;&gt;normmod -->
<g id="edge1" class="edge">
<title>ingmod&#45;&gt;normmod</title>
<path fill="none" stroke="#44546a" d="M160.52,-265C201.67,-265 255.41,-265 299.82,-265"/>
<polygon fill="#44546a" stroke="#44546a" points="300,-267.8 308,-265 300,-262.2 300,-267.8"/>
</g>
<!-- tlmod -->
<g id="node3" class="node">
<title>tlmod</title>
<path fill="#eef3fb" stroke="#3b5b92" stroke-width="1.2" d="M635.5,-284C635.5,-284 589.5,-284 589.5,-284 583.5,-284 577.5,-278 577.5,-272 577.5,-272 577.5,-260 577.5,-260 577.5,-254 583.5,-248 589.5,-248 589.5,-248 635.5,-248 635.5,-248 641.5,-248 647.5,-254 647.5,-260 647.5,-260 647.5,-272 647.5,-272 647.5,-278 641.5,-284 635.5,-284"/>
<text text-anchor="middle" x="612.5" y="-269" font-family="Helvetica,sans-Serif" font-size="10.00">timeline/</text>
<text text-anchor="middle" x="612.5" y="-258" font-family="Helvetica,sans-Serif" font-size="10.00">timeline</text>
</g>
<!-- normmod&#45;&gt;tlmod -->
<g id="edge2" class="edge">
<title>normmod&#45;&gt;tlmod</title>
<path fill="none" stroke="#44546a" d="M461.07,-265.33C497.08,-265.49 538.8,-265.68 569.16,-265.81"/>
<polygon fill="#44546a" stroke="#44546a" points="569.4,-268.61 577.41,-265.85 569.42,-263.01 569.4,-268.61"/>
</g>
<!-- pg -->
<g id="node12" class="node">
<title>pg</title>
<path fill="#fdf3e3" stroke="#a07020" stroke-width="1.2" d="M701,-222.28C701,-225.51 661.33,-228.13 612.5,-228.13 563.67,-228.13 524,-225.51 524,-222.28 524,-222.28 524,-169.72 524,-169.72 524,-166.49 563.67,-163.87 612.5,-163.87 661.33,-163.87 701,-166.49 701,-169.72 701,-169.72 701,-222.28 701,-222.28"/>
<path fill="none" stroke="#a07020" stroke-width="1.2" d="M701,-222.28C701,-219.06 661.33,-216.44 612.5,-216.44 563.67,-216.44 524,-219.06 524,-222.28"/>
<text text-anchor="middle" x="612.5" y="-204.5" font-family="Helvetica,sans-Serif" font-size="10.00">PostgreSQL 15</text>
<text text-anchor="middle" x="612.5" y="-193.5" font-family="Helvetica,sans-Serif" font-size="10.00">events, alerts,</text>
<text text-anchor="middle" x="612.5" y="-182.5" font-family="Helvetica,sans-Serif" font-size="10.00">llm_results, evaluation_results</text>
</g>
<!-- normmod&#45;&gt;pg -->
<g id="edge10" class="edge">
<title>normmod&#45;&gt;pg</title>
<path fill="none" stroke="#44546a" d="M447.74,-246.97C452.23,-245.63 456.69,-244.3 461,-243 478.77,-237.64 497.69,-231.82 515.89,-226.16"/>
<polygon fill="#44546a" stroke="#44546a" points="516.84,-228.8 523.65,-223.75 515.18,-223.45 516.84,-228.8"/>
</g>
<!-- corrmod -->
<g id="node4" class="node">
<title>corrmod</title>
<path fill="#eef3fb" stroke="#3b5b92" stroke-width="1.2" d="M828,-286C828,-286 770,-286 770,-286 764,-286 758,-280 758,-274 758,-274 758,-262 758,-262 758,-256 764,-250 770,-250 770,-250 828,-250 828,-250 834,-250 840,-256 840,-262 840,-262 840,-274 840,-274 840,-280 834,-286 828,-286"/>
<text text-anchor="middle" x="799" y="-271" font-family="Helvetica,sans-Serif" font-size="10.00">correlation/</text>
<text text-anchor="middle" x="799" y="-260" font-family="Helvetica,sans-Serif" font-size="10.00">correlator</text>
</g>
<!-- tlmod&#45;&gt;corrmod -->
<g id="edge3" class="edge">
<title>tlmod&#45;&gt;corrmod</title>
<path fill="none" stroke="#44546a" d="M647.77,-266.37C676.37,-266.68 717.48,-267.13 749.47,-267.47"/>
<polygon fill="#44546a" stroke="#44546a" points="749.78,-270.28 757.81,-267.56 749.84,-264.68 749.78,-270.28"/>
</g>
<!-- rulemod -->
<g id="node5" class="node">
<title>rulemod</title>
<path fill="#fdeaea" stroke="#a03030" stroke-width="1.2" d="M993,-346C993,-346 933,-346 933,-346 927,-346 921,-340 921,-334 921,-334 921,-322 921,-322 921,-316 927,-310 933,-310 933,-310 993,-310 993,-310 999,-310 1005,-316 1005,-322 1005,-322 1005,-334 1005,-334 1005,-340 999,-346 993,-346"/>
<text text-anchor="middle" x="963" y="-331" font-family="Helvetica,sans-Serif" font-size="10.00">rules/</text>
<text text-anchor="middle" x="963" y="-320" font-family="Helvetica,sans-Serif" font-size="10.00">rule_engine</text>
</g>
<!-- corrmod&#45;&gt;rulemod -->
<g id="edge4" class="edge">
<title>corrmod&#45;&gt;rulemod</title>
<path fill="none" stroke="#44546a" d="M840.04,-282.83C862.1,-291 889.65,-301.2 912.99,-309.85"/>
<polygon fill="#44546a" stroke="#44546a" points="912.25,-312.56 920.72,-312.71 914.19,-307.31 912.25,-312.56"/>
</g>
<!-- llmmod -->
<g id="node6" class="node">
<title>llmmod</title>
<path fill="#efe8fa" stroke="#6a3fa0" stroke-width="1.2" d="M1017,-291.5C1017,-291.5 909,-291.5 909,-291.5 903,-291.5 897,-285.5 897,-279.5 897,-279.5 897,-256.5 897,-256.5 897,-250.5 903,-244.5 909,-244.5 909,-244.5 1017,-244.5 1017,-244.5 1023,-244.5 1029,-250.5 1029,-256.5 1029,-256.5 1029,-279.5 1029,-279.5 1029,-285.5 1023,-291.5 1017,-291.5"/>
<text text-anchor="middle" x="963" y="-276.5" font-family="Helvetica,sans-Serif" font-size="10.00">llm/</text>
<text text-anchor="middle" x="963" y="-265.5" font-family="Helvetica,sans-Serif" font-size="10.00">prompts, client,</text>
<text text-anchor="middle" x="963" y="-254.5" font-family="Helvetica,sans-Serif" font-size="10.00">hallucination_checker</text>
</g>
<!-- corrmod&#45;&gt;llmmod -->
<g id="edge5" class="edge">
<title>corrmod&#45;&gt;llmmod</title>
<path fill="none" stroke="#44546a" d="M840.04,-268C854.78,-268 871.97,-268 888.71,-268"/>
<polygon fill="#44546a" stroke="#44546a" points="888.89,-270.8 896.89,-268 888.89,-265.2 888.89,-270.8"/>
</g>
<!-- evalmod -->
<g id="node7" class="node">
<title>evalmod</title>
<path fill="#eef3fb" stroke="#3b5b92" stroke-width="1.2" d="M1198,-315C1198,-315 1141,-315 1141,-315 1135,-315 1129,-309 1129,-303 1129,-303 1129,-291 1129,-291 1129,-285 1135,-279 1141,-279 1141,-279 1198,-279 1198,-279 1204,-279 1210,-285 1210,-291 1210,-291 1210,-303 1210,-303 1210,-309 1204,-315 1198,-315"/>
<text text-anchor="middle" x="1169.5" y="-300" font-family="Helvetica,sans-Serif" font-size="10.00">evaluation/</text>
<text text-anchor="middle" x="1169.5" y="-289" font-family="Helvetica,sans-Serif" font-size="10.00">evaluator</text>
</g>
<!-- rulemod&#45;&gt;evalmod -->
<g id="edge6" class="edge">
<title>rulemod&#45;&gt;evalmod</title>
<path fill="none" stroke="#44546a" d="M1005.38,-321.73C1038.77,-316.67 1085.77,-309.54 1120.75,-304.24"/>
<polygon fill="#44546a" stroke="#44546a" points="1121.43,-306.97 1128.92,-303 1120.59,-301.43 1121.43,-306.97"/>
</g>
<!-- llmmod&#45;&gt;evalmod -->
<g id="edge7" class="edge">
<title>llmmod&#45;&gt;evalmod</title>
<path fill="none" stroke="#44546a" d="M1029.27,-277.26C1058.93,-281.46 1093.39,-286.35 1120.6,-290.21"/>
<polygon fill="#44546a" stroke="#44546a" points="1120.49,-293.02 1128.81,-291.37 1121.28,-287.48 1120.49,-293.02"/>
</g>
<!-- ext -->
<g id="node15" class="node">
<title>ext</title>
<path fill="#efe8fa" stroke="#6a3fa0" stroke-width="1.2" d="M1229,-93.5C1229,-93.5 1110,-93.5 1110,-93.5 1104,-93.5 1098,-87.5 1098,-81.5 1098,-81.5 1098,-58.5 1098,-58.5 1098,-52.5 1104,-46.5 1110,-46.5 1110,-46.5 1229,-46.5 1229,-46.5 1235,-46.5 1241,-52.5 1241,-58.5 1241,-58.5 1241,-81.5 1241,-81.5 1241,-87.5 1235,-93.5 1229,-93.5"/>
<text text-anchor="middle" x="1169.5" y="-78.5" font-family="Helvetica,sans-Serif" font-size="10.00">LLM serving endpoint</text>
<text text-anchor="middle" x="1169.5" y="-67.5" font-family="Helvetica,sans-Serif" font-size="10.00">OpenAI&#45;compatible</text>
<text text-anchor="middle" x="1169.5" y="-56.5" font-family="Helvetica,sans-Serif" font-size="10.00">(Modal / vLLM / Ollama)</text>
</g>
<!-- llmmod&#45;&gt;ext -->
<g id="edge12" class="edge">
<title>llmmod&#45;&gt;ext</title>
<path fill="none" stroke="#44546a" d="M988.67,-244.12C1026.23,-207.75 1097.69,-138.56 1138.3,-99.24"/>
<polygon fill="#44546a" stroke="#44546a" points="1140.26,-101.24 1144.06,-93.66 1136.37,-97.21 1140.26,-101.24"/>
<text text-anchor="middle" x="1063.5" y="-182.8" font-family="Helvetica,sans-Serif" font-size="9.00">HTTPS</text>
</g>
<!-- repmod -->
<g id="node8" class="node">
<title>repmod</title>
<path fill="#eef3fb" stroke="#3b5b92" stroke-width="1.2" d="M1344,-315C1344,-315 1294,-315 1294,-315 1288,-315 1282,-309 1282,-303 1282,-303 1282,-291 1282,-291 1282,-285 1288,-279 1294,-279 1294,-279 1344,-279 1344,-279 1350,-279 1356,-285 1356,-291 1356,-291 1356,-303 1356,-303 1356,-309 1350,-315 1344,-315"/>
<text text-anchor="middle" x="1319" y="-300" font-family="Helvetica,sans-Serif" font-size="10.00">reporting/</text>
<text text-anchor="middle" x="1319" y="-289" font-family="Helvetica,sans-Serif" font-size="10.00">reporter</text>
</g>
<!-- evalmod&#45;&gt;repmod -->
<g id="edge8" class="edge">
<title>evalmod&#45;&gt;repmod</title>
<path fill="none" stroke="#44546a" d="M1210.03,-297C1229.68,-297 1253.49,-297 1273.75,-297"/>
<polygon fill="#44546a" stroke="#44546a" points="1273.9,-299.8 1281.9,-297 1273.9,-294.2 1273.9,-299.8"/>
</g>
<!-- api -->
<g id="node9" class="node">
<title>api</title>
<path fill="#eef3fb" stroke="#3b5b92" stroke-width="1.2" d="M435.5,-146C435.5,-146 333.5,-146 333.5,-146 327.5,-146 321.5,-140 321.5,-134 321.5,-134 321.5,-122 321.5,-122 321.5,-116 327.5,-110 333.5,-110 333.5,-110 435.5,-110 435.5,-110 441.5,-110 447.5,-116 447.5,-122 447.5,-122 447.5,-134 447.5,-134 447.5,-140 441.5,-146 435.5,-146"/>
<text text-anchor="middle" x="384.5" y="-131" font-family="Helvetica,sans-Serif" font-size="10.00">FastAPI app/main.py</text>
<text text-anchor="middle" x="384.5" y="-120" font-family="Helvetica,sans-Serif" font-size="10.00">14 REST endpoints</text>
</g>
<!-- dash -->
<g id="node10" class="node">
<title>dash</title>
<path fill="#eef3fb" stroke="#3b5b92" stroke-width="1.2" d="M663.5,-146C663.5,-146 561.5,-146 561.5,-146 555.5,-146 549.5,-140 549.5,-134 549.5,-134 549.5,-122 549.5,-122 549.5,-116 555.5,-110 561.5,-110 561.5,-110 663.5,-110 663.5,-110 669.5,-110 675.5,-116 675.5,-122 675.5,-122 675.5,-134 675.5,-134 675.5,-140 669.5,-146 663.5,-146"/>
<text text-anchor="middle" x="612.5" y="-131" font-family="Helvetica,sans-Serif" font-size="10.00">Streamlit dashboard</text>
<text text-anchor="middle" x="612.5" y="-120" font-family="Helvetica,sans-Serif" font-size="10.00">5 tabs</text>
</g>
<!-- api&#45;&gt;dash -->
<g id="edge13" class="edge">
<title>api&#45;&gt;dash</title>
<path fill="none" stroke="#44546a" d="M455.85,-128C485.72,-128 520.25,-128 549.19,-128"/>
<polygon fill="#44546a" stroke="#44546a" points="455.55,-125.2 447.55,-128 455.55,-130.8 455.55,-125.2"/>
<text text-anchor="middle" x="492.5" y="-130.8" font-family="Helvetica,sans-Serif" font-size="9.00">HTTP</text>
</g>
<!-- api&#45;&gt;pg -->
<g id="edge11" class="edge">
<title>api&#45;&gt;pg</title>
<path fill="none" stroke="#44546a" d="M445.47,-146.04C467.06,-152.54 492,-160.04 515.87,-167.23"/>
<polygon fill="#44546a" stroke="#44546a" points="515.12,-169.92 523.58,-169.55 516.73,-164.56 515.12,-169.92"/>
</g>
<!-- cfg -->
<g id="node11" class="node">
<title>cfg</title>
<polygon fill="#fdf3e3" stroke="#a07020" stroke-width="1.2" points="850,-228 742,-228 742,-192 856,-192 856,-222 850,-228"/>
<polyline fill="none" stroke="#a07020" stroke-width="1.2" points="850,-228 850,-222 "/>
<polyline fill="none" stroke="#a07020" stroke-width="1.2" points="856,-222 850,-222 "/>
<text text-anchor="middle" x="799" y="-213" font-family="Helvetica,sans-Serif" font-size="10.00">config/rules.yaml</text>
<text text-anchor="middle" x="799" y="-202" font-family="Helvetica,sans-Serif" font-size="10.00">12 rule definitions</text>
</g>
<!-- cfg&#45;&gt;rulemod -->
<g id="edge9" class="edge">
<title>cfg&#45;&gt;rulemod</title>
<path fill="none" stroke="#44546a" d="M850.97,-228.17C852.72,-229.37 854.41,-230.65 856,-232 883.18,-255.1 870.04,-277.64 897,-301 901.87,-305.22 907.49,-308.85 913.35,-311.95"/>
<polygon fill="#44546a" stroke="#44546a" points="912.43,-314.62 920.85,-315.6 914.88,-309.58 912.43,-314.62"/>
</g>
<!-- lar -->
<g id="node13" class="node">
<title>lar</title>
<path fill="#eef3fb" stroke="#3b5b92" stroke-width="1.2" d="M162,-64C162,-64 28,-64 28,-64 22,-64 16,-58 16,-52 16,-52 16,-40 16,-40 16,-34 22,-28 28,-28 28,-28 162,-28 162,-28 168,-28 174,-34 174,-40 174,-40 174,-52 174,-52 174,-58 168,-64 162,-64"/>
<text text-anchor="middle" x="95" y="-49" font-family="Helvetica,sans-Serif" font-size="10.00">Laravel orchestration</text>
<text text-anchor="middle" x="95" y="-38" font-family="Helvetica,sans-Serif" font-size="10.00">6 controllers, 14 API routes</text>
</g>
<!-- lar&#45;&gt;api -->
<g id="edge14" class="edge">
<title>lar&#45;&gt;api</title>
<path fill="none" stroke="#44546a" d="M159.45,-64.1C205.03,-77.1 266.48,-94.62 313.49,-108.03"/>
<polygon fill="#44546a" stroke="#44546a" points="312.74,-110.73 321.2,-110.23 314.28,-105.34 312.74,-110.73"/>
<text text-anchor="middle" x="241" y="-111.8" font-family="Helvetica,sans-Serif" font-size="9.00">ForensicEngineClient</text>
<text text-anchor="middle" x="241" y="-101.8" font-family="Helvetica,sans-Serif" font-size="9.00">(HTTP proxy)</text>
</g>
<!-- aud -->
<g id="node14" class="node">
<title>aud</title>
<path fill="#fdf3e3" stroke="#a07020" stroke-width="1.2" d="M437,-61.05C437,-63.51 413.47,-65.5 384.5,-65.5 355.53,-65.5 332,-63.51 332,-61.05 332,-61.05 332,-20.95 332,-20.95 332,-18.49 355.53,-16.5 384.5,-16.5 413.47,-16.5 437,-18.49 437,-20.95 437,-20.95 437,-61.05 437,-61.05"/>
<path fill="none" stroke="#a07020" stroke-width="1.2" d="M437,-61.05C437,-58.59 413.47,-56.59 384.5,-56.59 355.53,-56.59 332,-58.59 332,-61.05"/>
<text text-anchor="middle" x="384.5" y="-44" font-family="Helvetica,sans-Serif" font-size="10.00">AuditService</text>
<text text-anchor="middle" x="384.5" y="-33" font-family="Helvetica,sans-Serif" font-size="10.00">audit_logs table</text>
</g>
<!-- lar&#45;&gt;aud -->
<g id="edge15" class="edge">
<title>lar&#45;&gt;aud</title>
<path fill="none" stroke="#44546a" d="M174.18,-44.64C221.2,-43.82 280.13,-42.8 323.47,-42.04"/>
<polygon fill="#44546a" stroke="#44546a" points="323.7,-44.84 331.65,-41.9 323.6,-39.24 323.7,-44.84"/>
</g>
</g>
</svg>
